<svg width="48" height="55" viewBox="0 0 497 497" fill="none" xmlns="http://www.w3.org/2000/svg">
  <path fill="black" d="M261.857 72.5c-8 8.333-17.834 12.5-29.5 12.5-11.667 0-21.667-4.167-30-12.5-8.333-8.333-12.5-18.333-12.5-30s4.167-21.667 12.5-30c8.332-8.333 18.332-12.5 30-12.5 11.667 0 21.5 4.167 29.5 12.5 8 8.333 12 18.333 12 30s-4 21.667-12 30z"/>
  <path fill="black" d="M155.357 110c-9.667 8.667-14.5 20-14.5 34v127c0 6.667 2.667 11.333 8 14 5.333 2.667 10.5 2.667 15.5 0s7.5-7.334 7.5-14V149h10v327c0 14 6.833 21 20.5 21 13.667 0 20.5-7 20.5-21V282V97h-30c-20.833 0-33.333 4.333-43 13z"/>
  <path fill="black" d="M355.857 251l-41-106c-2-12-8.332-23-19-33-10.666-10-22.666-15-36-15h-26v244c6.666 0 10 0.667 10 2v133c0 5.333 2 10.167 6 14.5s8.668 6.5 14 6.5c5.336 0 10.17-2.167 14.5-6.5 4.334-4.333 6.5-9.167 6.5-14.5V343h39c2 0 4.334-1.167 7-3.5 2.668-2.333 4-4.5 4-6.5v-1v-9l-60-167c-.666 0-1-.333-1-1 0-3.333 1.668-5 5-5 2 0 3.334 1.333 4 4l41 107c3.336 6.667 10.668 10 22 10 4 0 6.834-2.833 8.5-8.5.668-2.667 1.168-6.5.5-8.5z"/>
</svg>
